<svg fill="none" xmlns="http://www.w3.org/2000/svg">
<g clip-path="url(#clip0_2_123)">
<path d="M4.55334 16C4.64108 16.0005 4.72806 15.9837 4.80928 15.9505C4.89051 15.9173 4.96439 15.8684 5.02668 15.8066L10.4733 10.36C10.7838 10.0503 11.0301 9.68251 11.1981 9.27754C11.3661 8.87257 11.4526 8.43843 11.4526 7.99998C11.4526 7.56153 11.3661 7.12739 11.1981 6.72242C11.0301 6.31746 10.7838 5.94962 10.4733 5.63998L5.02668 0.193315C4.96452 0.131155 4.89073 0.0818483 4.80951 0.048208C4.7283 0.0145678 4.64125 -0.00274658 4.55334 -0.00274658C4.46544 -0.00274658 4.37839 0.0145678 4.29718 0.048208C4.21596 0.0818483 4.14217 0.131155 4.08001 0.193315C4.01785 0.255474 3.96854 0.329267 3.9349 0.410482C3.90126 0.491696 3.88395 0.578742 3.88395 0.666648C3.88395 0.754554 3.90126 0.841599 3.9349 0.922814C3.96854 1.00403 4.01785 1.07782 4.08001 1.13998L9.52668 6.58665C9.90121 6.96165 10.1116 7.46998 10.1116 7.99998C10.1116 8.52998 9.90121 9.03831 9.52668 9.41331L4.08001 14.86C4.01753 14.922 3.96793 14.9957 3.93408 15.0769C3.90024 15.1582 3.88281 15.2453 3.88281 15.3333C3.88281 15.4213 3.90024 15.5085 3.93408 15.5897C3.96793 15.6709 4.01753 15.7447 4.08001 15.8066C4.14231 15.8684 4.21618 15.9173 4.29741 15.9505C4.37863 15.9837 4.46561 16.0005 4.55334 16Z" fill="currentColor"/>
</g>
<defs>
<clipPath id="clip0_2_123">
<rect width="16" height="16" fill="white" transform="matrix(-1 0 0 1 16 0)"/>
</clipPath>
</defs>
</svg>
