<svg width="48px" height="48px" viewBox="0 0 16 16" fill="none" xmlns="http://www.w3.org/2000/svg">
<g clip-path="url(#clip0_2_128)">
<path width="48px" height="48px" d="M11.4467 16C11.3589 16.0005 11.2719 15.9837 11.1907 15.9505C11.1095 15.9173 11.0356 15.8684 10.9733 15.8066L5.52666 10.36C5.21623 10.0503 4.96995 9.68251 4.80191 9.27754C4.63386 8.87257 4.54736 8.43843 4.54736 7.99998C4.54736 7.56153 4.63386 7.12739 4.80191 6.72242C4.96995 6.31746 5.21623 5.94962 5.52666 5.63998L10.9733 0.193315C11.0355 0.131155 11.1093 0.0818483 11.1905 0.048208C11.2717 0.0145678 11.3587 -0.00274658 11.4467 -0.00274658C11.5346 -0.00274658 11.6216 0.0145678 11.7028 0.048208C11.784 0.0818483 11.8578 0.131155 11.92 0.193315C11.9821 0.255474 12.0315 0.329267 12.0651 0.410482C12.0987 0.491696 12.116 0.578742 12.116 0.666648C12.116 0.754554 12.0987 0.841599 12.0651 0.922814C12.0315 1.00403 11.9821 1.07782 11.92 1.13998L6.47332 6.58665C6.09879 6.96165 5.88842 7.46998 5.88842 7.99998C5.88842 8.52998 6.09879 9.03831 6.47332 9.41331L11.92 14.86C11.9825 14.922 12.0321 14.9957 12.0659 15.0769C12.0998 15.1582 12.1172 15.2453 12.1172 15.3333C12.1172 15.4213 12.0998 15.5085 12.0659 15.5897C12.0321 15.6709 11.9825 15.7447 11.92 15.8066C11.8577 15.8684 11.7838 15.9173 11.7026 15.9505C11.6214 15.9837 11.5344 16.0005 11.4467 16Z" fill="currentColor"/>
</g>
<defs>
<clipPath id="clip0_2_128">
<rect width="48" height="48" fill="white"/>
</clipPath>
</defs>
</svg>
