<svg width="161" height="168" viewBox="0 0 161 168" fill="none" xmlns="http://www.w3.org/2000/svg">
<path d="M16.9283 48.075C17.2389 45.8182 17.8602 43.7714 18.999 42.0394C21.8463 37.8932 26.6608 36.0562 31.4235 35.6889C31.4235 35.6889 37.2216 34.7442 58.1878 35.0066C74.8053 35.164 79.3612 26.7142 80.5003 21.7282C81.6909 26.7666 86.1947 35.2165 102.812 35.0066C123.778 34.6917 129.576 35.6889 129.576 35.6889C134.391 36.0562 139.206 37.8932 142.001 42.0394C143.192 43.7714 143.813 45.8182 144.072 48.075H161C160.793 45.1359 160.431 42.1969 159.706 39.3627C157.842 32.3299 153.804 25.2971 146.867 22.4105C135.323 17.6345 126.367 18.3168 110.629 18.1068C94.8916 17.8969 92.4069 15.0628 89.9736 12.0712C87.5404 9.07969 86.3497 0 86.3497 0H82.1566H80.4482H78.7398H74.5467C74.5467 0 73.3561 9.07969 70.9228 12.0712C68.4896 15.0628 66.0048 17.8969 50.2673 18.1068C34.5296 18.3168 25.5737 17.6345 14.0293 22.4105C7.19584 25.2971 3.20965 32.3299 1.29421 39.3627C0.569452 42.1443 0.207074 45.0835 0 48.075H16.9283Z" fill="#FE8041"/>
<path d="M143.088 60.873C142.363 64.2842 141.483 67.5908 140.809 70.2148C138.014 81.8141 133.614 92.9927 127.816 103.385C115.029 126.32 98.204 140.281 86.8667 147.943V167.31C99.4467 160.225 117.669 147.471 133.355 125.795C142.466 113.199 149.765 99.1334 154.683 84.3331C157.065 77.1427 159.394 69.0079 160.533 60.873H143.088Z" fill="#FE8041"/>
<path d="M74.1841 147.943C62.8468 140.281 46.0221 126.32 33.2353 103.385C27.4372 92.9927 23.0886 81.8141 20.2414 70.2148C19.6202 67.5908 18.6883 64.2842 17.9636 60.873H0.569336C1.70824 69.0079 4.03783 77.0905 6.4192 84.3331C11.3372 99.1334 18.6366 113.199 27.7478 125.795C43.4337 147.471 61.6562 160.225 74.2361 167.31V147.943H74.1841Z" fill="#FE8041"/>
</svg>
