<svg fill="none" xmlns="http://www.w3.org/2000/svg">
<g clip-path="url(#clip0_11_366)">
<path d="M24.1699 22.293L18.1313 16.324C19.7769 14.3346 20.586 11.7961 20.3912 9.23359C20.1964 6.67106 19.0126 4.28056 17.0848 2.55655C15.1569 0.832537 12.6324 -0.0930816 10.0335 -0.0288498C7.43452 0.035382 4.95998 1.08455 3.12168 2.90164C1.28337 4.71873 0.221959 7.16472 0.156978 9.73367C0.0919961 12.3026 1.02842 14.798 2.77255 16.7036C4.51669 18.6092 6.93509 19.7793 9.52754 19.9719C12.12 20.1644 14.6881 19.3647 16.7007 17.738L22.7394 23.707C22.9302 23.8892 23.1858 23.99 23.451 23.9877C23.7163 23.9854 23.97 23.8803 24.1576 23.6948C24.3452 23.5094 24.4516 23.2586 24.4539 22.9964C24.4562 22.7342 24.3542 22.4816 24.1699 22.293ZM10.3029 18C8.7022 18 7.13743 17.5308 5.80648 16.6518C4.47553 15.7727 3.43818 14.5233 2.82561 13.0615C2.21304 11.5997 2.05276 9.99115 2.36505 8.4393C2.67733 6.88746 3.44815 5.46199 4.58004 4.34317C5.71192 3.22435 7.15402 2.46243 8.72398 2.15374C10.2939 1.84506 11.9213 2.00349 13.4001 2.60899C14.879 3.21449 16.143 4.23987 17.0323 5.55546C17.9216 6.87106 18.3963 8.41778 18.3963 10C18.3939 12.121 17.5404 14.1545 16.0232 15.6543C14.5059 17.154 12.4487 17.9976 10.3029 18Z" fill="currentColor"/>
</g>
<defs>
<clipPath id="clip0_11_366">
<rect width="24.2802" height="24" fill="white" transform="translate(0.186523)"/>
</clipPath>
</defs>
</svg>
